{"glyphs":{":":{"x_min":0,"x_max":231,"ha":231,"o":"m 116 -15 q 141 -15 160 4 q 180 22 180 48 q 180 74 160 94 q 142 112 116 112 q 89 112 70 94 q 52 74 52 48 q 52 22 70 4 q 90 -15 116 -15 z m 116 275 q 142 275 160 294 q 180 312 180 338 q 180 365 160 384 q 142 402 116 402 q 89 402 70 384 q 52 365 52 338 q 52 312 70 294 q 89 275 116 275 z m 32 304 q 25 322 25 338 q 25 356 32 373 l 32 758 l 38 766 l 192 766 l 198 758 l 198 376 q 206 356 206 338 q 206 321 198 302 l 198 85 q 206 66 206 48 q 206 31 198 12 l 198 -28 l 192 -35 l 150 -35 q 132 -42 116 -42 q 98 -42 82 -35 l 38 -35 l 32 -28 l 32 14 q 25 32 25 48 q 25 65 32 82 z"},"?":{"x_min":0,"x_max":466,"ha":466,"o":"m 38 766 l 105 766 l 114 772 l 191 772 l 198 766 l 342 766 l 351 772 l 428 772 l 441 758 l 441 538 l 434 532 l 434 -28 l 428 -35 l 38 -35 l 31 -28 l 31 534 l 25 543 l 31 560 l 31 758 z m 56 552 l 178 552 l 178 746 l 124 746 z m 293 552 l 414 552 l 414 746 l 360 746 z"},"<":{"x_min":0,"x_max":554,"ha":554,"o":"m 226 606 q 260 625 298 615 q 336 605 356 571 l 356 571 q 375 536 365 499 q 356 462 322 442 l 322 441 q 272 413 243 365 q 217 322 212 275 l 341 275 q 346 289 354 302 q 366 320 385 331 l 385 330 l 385 330 l 384 332 q 464 377 488 466 q 512 556 466 634 l 466 634 q 420 714 331 738 q 241 762 162 716 l 162 716 q 110 686 82 634 q 55 589 52 537 l 180 537 q 182 555 192 571 q 204 593 226 606 z m 274 -15 q 300 -15 320 4 q 338 22 338 48 q 338 74 320 94 q 301 112 274 112 q 248 112 230 94 q 210 74 210 48 q 210 22 230 4 q 248 -15 274 -15 z m 308 -35 q 291 -42 274 -42 q 258 -42 240 -35 l 38 -35 l 32 -28 l 32 517 l 25 524 q 25 554 32 580 l 32 758 l 38 766 l 216 766 q 272 778 330 766 l 509 766 l 516 758 l 516 580 q 528 524 516 466 l 516 -28 l 509 -35 z"},"a":{"x_min":0,"x_max":862,"ha":862,"o":"m 38 766 l 342 766 l 351 772 l 354 772 l 508 772 l 511 772 l 520 766 l 824 766 l 832 758 l 832 -9 l 837 -23 l 824 -42 l 667 -42 l 658 -35 l 204 -35 l 195 -42 l 38 -42 l 25 -23 l 30 -9 l 30 758 z m 502 746 l 360 746 l 57 -15 l 186 -15 l 248 140 l 260 148 l 602 148 l 614 140 l 676 -15 l 805 -15 z m 444 569 l 564 265 l 552 246 l 310 246 l 298 265 l 418 569 z"},"L":{"x_min":0,"x_max":566,"ha":566,"o":"m 25 -26 l 25 761 l 38 774 l 186 774 l 193 768 l 527 768 l 534 761 l 534 134 l 540 128 l 540 -26 l 527 -40 l 38 -40 z m 52 748 l 52 -12 l 514 -12 l 514 114 l 186 114 l 173 128 l 173 748 z"},"3":{"x_min":0,"x_max":547,"ha":547,"o":"m 32 514 l 25 520 q 25 520 25 520 q 25 521 25 522 q 25 524 25 522 q 25 520 25 524 q 25 550 32 581 l 32 758 l 38 766 l 216 766 q 242 772 274 772 q 304 772 331 766 l 508 766 l 515 758 l 515 584 q 522 553 522 524 q 522 494 515 464 l 515 266 q 522 236 522 206 q 522 176 515 146 l 515 -28 l 508 -35 l 334 -35 q 303 -42 274 -42 q 244 -42 214 -35 l 38 -35 l 32 -28 l 32 148 q 25 178 25 206 q 25 208 25 206 q 25 204 25 208 q 25 208 25 208 q 25 209 25 210 l 32 216 z m 206 590 q 234 618 274 618 q 313 618 340 590 q 368 563 368 524 q 368 484 340 456 q 318 434 287 430 l 287 300 q 318 295 340 273 q 368 246 368 206 q 368 166 340 139 q 312 111 274 111 q 234 111 206 139 q 182 162 179 196 l 52 196 q 56 110 116 49 q 182 -16 274 -16 q 366 -16 430 49 q 496 114 496 206 q 496 247 480 286 q 466 324 438 356 l 438 374 q 466 406 480 444 q 496 482 496 524 q 496 614 430 680 q 366 746 274 746 q 182 746 116 680 q 56 620 52 534 l 179 534 q 182 566 206 590 z"},";":{"x_min":0,"x_max":231,"ha":231,"o":"m 116 275 q 142 275 160 294 q 180 312 180 338 q 180 365 160 384 q 142 402 116 402 q 89 402 70 384 q 52 365 52 338 q 52 312 70 294 q 89 275 116 275 z m 198 196 l 204 187 l 198 170 l 198 -28 l 192 -35 l 124 -35 l 115 -42 l 38 -42 l 25 -28 l 25 192 l 32 198 l 32 304 q 25 322 25 338 q 25 356 32 373 l 32 758 l 38 766 l 192 766 l 198 758 l 198 376 q 206 356 206 338 q 206 321 198 302 z m 173 178 l 52 178 l 52 -15 l 106 -15 z"},"J":{"x_min":0,"x_max":496,"ha":496,"o":"m 444 746 l 317 746 l 317 206 q 317 167 289 139 q 261 111 222 111 q 200 111 180 121 q 168 127 156 138 l 54 60 q 84 26 124 7 q 171 -16 222 -16 q 314 -16 379 49 q 444 114 444 206 z m 36 766 l 297 766 l 304 772 l 457 772 l 470 758 l 470 206 q 470 178 464 148 l 464 -28 l 457 -35 l 282 -35 q 252 -42 222 -42 q 192 -42 162 -35 l 36 -35 l 29 -28 l 29 50 q 27 52 25 54 l 28 73 l 29 74 l 29 758 z"},"V":{"x_min":0,"x_max":862,"ha":862,"o":"m 360 -15 l 502 -15 l 805 746 l 676 746 l 444 162 l 418 162 l 186 746 l 57 746 z m 204 766 l 658 766 l 667 772 l 824 772 l 837 754 l 832 740 l 832 -28 l 824 -35 l 520 -35 l 511 -42 l 508 -42 l 354 -42 l 351 -42 l 342 -35 l 38 -35 l 30 -28 l 30 740 l 25 754 l 38 772 l 195 772 z"},"\"":{"x_min":0,"x_max":466,"ha":466,"o":"m 196 766 l 268 766 l 275 772 l 428 772 l 441 754 l 435 738 l 435 -28 l 428 -35 l 38 -35 l 32 -28 l 32 532 l 25 538 l 25 758 l 38 772 l 192 772 z m 410 746 l 288 746 l 288 552 l 342 552 z m 173 746 l 52 746 l 52 552 l 106 552 z"},"7":{"x_min":0,"x_max":565,"ha":565,"o":"m 32 600 l 25 607 l 25 761 l 38 774 l 527 774 l 540 758 l 534 734 l 534 -26 l 527 -32 l 325 -32 l 316 -40 l 152 -40 l 146 -32 l 38 -32 l 32 -26 z m 52 620 l 322 620 l 334 604 l 169 -12 l 306 -12 l 510 748 l 52 748 z"},"S":{"x_min":0,"x_max":552,"ha":552,"o":"m 276 772 q 304 772 334 765 l 514 765 l 521 758 l 521 580 q 528 550 528 524 l 521 517 l 521 264 q 528 234 528 207 q 528 179 521 150 l 521 -28 l 514 -36 l 329 -36 q 302 -41 276 -41 q 250 -41 224 -36 l 38 -36 l 32 -28 l 32 150 q 25 176 25 207 l 25 207 l 25 208 l 25 208 l 32 214 l 32 466 q 25 492 25 523 q 25 554 32 580 l 32 758 l 38 765 l 218 765 q 248 772 276 772 z m 435 680 q 369 745 276 745 q 183 745 118 680 q 52 614 52 523 q 52 432 116 368 q 180 303 273 302 l 274 302 q 313 302 340 274 q 368 246 368 208 q 368 168 340 140 q 313 112 274 112 q 234 112 206 140 q 184 163 180 194 l 52 194 q 57 109 118 50 q 182 -14 276 -14 q 370 -14 435 50 q 501 114 501 207 q 501 299 435 364 q 370 428 276 428 q 274 428 274 428 q 276 428 275 428 q 274 428 274 428 q 274 428 274 428 l 274 428 l 274 428 l 274 428 q 234 428 206 456 q 178 484 178 524 q 178 562 206 590 q 234 618 274 618 q 313 618 340 590 q 362 568 368 537 l 500 537 q 495 620 435 680 z"},"Z":{"x_min":0,"x_max":689,"ha":689,"o":"m 657 744 l 657 138 l 664 130 l 664 -28 l 650 -42 l 201 -42 l 174 -42 l 38 -42 l 27 -22 l 32 -13 l 32 592 l 25 600 l 25 758 l 38 772 l 650 772 l 662 752 z m 628 746 l 52 746 l 52 612 l 397 612 l 408 593 l 61 -15 l 174 -15 l 201 -15 l 637 -15 l 637 118 l 292 118 l 280 138 z"},"x":{"x_min":0,"x_max":686,"ha":686,"o":"m 236 766 l 450 766 l 460 772 l 649 772 l 660 752 l 656 743 l 656 -12 l 660 -22 l 649 -42 l 460 -42 l 450 -35 l 236 -35 l 225 -42 l 36 -42 l 25 -22 l 30 -12 l 30 743 l 25 752 l 36 772 l 225 772 z m 626 746 l 468 746 l 354 534 l 331 534 l 217 746 l 59 746 l 260 372 l 260 359 l 59 -15 l 217 -15 l 331 196 l 354 196 l 468 -15 l 626 -15 l 425 359 l 425 372 z"},"v":{"x_min":0,"x_max":862,"ha":862,"o":"m 360 -15 l 502 -15 l 805 746 l 676 746 l 444 162 l 418 162 l 186 746 l 57 746 z m 204 766 l 658 766 l 667 772 l 824 772 l 837 754 l 832 740 l 832 -28 l 824 -35 l 520 -35 l 511 -42 l 508 -42 l 354 -42 l 351 -42 l 342 -35 l 38 -35 l 30 -28 l 30 740 l 25 754 l 38 772 l 195 772 z"},"O":{"x_min":0,"x_max":864,"ha":864,"o":"m 38 766 l 358 766 q 392 772 432 772 q 470 772 506 766 l 826 766 l 832 758 l 832 439 q 839 400 839 365 q 839 330 832 292 l 832 -28 l 826 -35 l 506 -35 q 466 -42 432 -42 q 397 -42 358 -35 l 38 -35 l 32 -28 l 32 292 q 25 326 25 365 q 25 404 32 439 l 32 758 z m 701 634 q 649 686 580 716 q 510 746 432 746 q 353 746 284 716 q 214 686 163 634 q 111 582 81 513 q 52 444 52 365 q 52 286 81 217 q 111 148 163 96 q 214 44 284 15 q 353 -15 432 -15 q 510 -15 580 15 q 649 44 701 96 q 752 148 782 217 q 812 286 812 365 q 812 444 782 513 q 752 582 701 634 z m 432 620 q 537 620 612 545 q 686 470 686 365 q 686 260 612 186 q 537 111 432 111 q 326 111 252 186 q 178 260 178 365 q 178 470 252 545 q 326 620 432 620 z"},"C":{"x_min":0,"x_max":748,"ha":748,"o":"m 38 766 l 358 766 q 392 772 432 772 q 470 772 506 766 l 710 766 l 717 758 l 717 656 q 718 654 720 652 q 722 651 723 650 l 723 630 l 717 624 l 717 99 l 720 96 l 720 78 q 719 76 717 74 l 717 -28 l 710 -35 l 506 -35 q 466 -42 432 -42 q 397 -42 358 -35 l 38 -35 l 32 -28 l 32 292 q 25 326 25 365 q 25 404 32 439 l 32 758 z m 580 716 q 508 746 432 746 q 353 746 284 716 q 214 686 163 634 q 111 582 81 513 q 52 444 52 365 q 52 286 81 217 q 111 148 163 96 q 214 44 284 15 q 353 -15 432 -15 q 582 -15 692 87 l 602 176 q 570 148 529 130 q 483 111 432 111 q 326 111 252 186 q 178 260 178 365 q 178 470 252 545 q 326 620 432 620 q 482 620 530 600 q 570 582 604 552 l 694 640 q 645 688 580 716 z"},"W":{"x_min":0,"x_max":1112,"ha":1112,"o":"m 1057 746 l 922 746 l 788 260 l 762 260 l 627 746 l 485 746 l 350 260 l 324 260 l 190 746 l 56 746 l 266 -15 l 408 -15 l 543 470 l 569 470 l 704 -15 l 846 -15 z m 208 766 l 466 766 l 475 772 l 637 772 l 646 766 l 904 766 l 912 772 l 1074 772 l 1087 755 l 1074 709 l 1074 -28 l 1068 -35 l 864 -35 l 856 -42 l 694 -42 l 685 -35 l 427 -35 l 418 -42 l 256 -42 l 248 -35 l 38 -35 l 31 -28 l 31 733 l 25 755 l 38 772 l 200 772 z"},"A":{"x_min":0,"x_max":862,"ha":862,"o":"m 38 766 l 342 766 l 351 772 l 354 772 l 508 772 l 511 772 l 520 766 l 824 766 l 832 758 l 832 -9 l 837 -23 l 824 -42 l 667 -42 l 658 -35 l 204 -35 l 195 -42 l 38 -42 l 25 -23 l 30 -9 l 30 758 z m 502 746 l 360 746 l 57 -15 l 186 -15 l 248 140 l 260 148 l 602 148 l 614 140 l 676 -15 l 805 -15 z m 444 569 l 564 265 l 552 246 l 310 246 l 298 265 l 418 569 z"},"f":{"x_min":0,"x_max":566,"ha":566,"o":"m 52 748 l 52 -12 l 173 -12 l 173 290 l 186 304 l 374 304 l 374 431 l 186 431 l 173 444 l 173 607 l 186 620 l 514 620 l 514 748 z m 534 600 l 534 -26 l 527 -32 l 193 -32 l 186 -40 l 38 -40 l 25 -26 l 25 761 l 38 774 l 527 774 l 540 761 l 540 607 z"},"Q":{"x_min":0,"x_max":864,"ha":864,"o":"m 38 766 l 358 766 q 392 772 432 772 q 470 772 506 766 l 826 766 l 832 758 l 832 439 q 839 400 839 365 q 839 330 832 292 l 832 78 l 835 76 l 835 56 l 832 54 l 832 -28 l 826 -35 l 743 -35 l 740 -38 l 722 -38 l 718 -35 l 506 -35 q 466 -42 432 -42 q 397 -42 358 -35 l 38 -35 l 32 -28 l 32 292 q 25 326 25 365 q 25 404 32 439 l 32 758 z m 701 634 q 649 686 580 716 q 510 746 432 746 q 353 746 284 716 q 214 686 163 634 q 111 582 81 513 q 52 444 52 365 q 52 286 81 217 q 111 148 163 96 q 214 44 284 15 q 353 -15 432 -15 q 490 -15 547 2 q 604 20 651 54 l 668 53 l 731 -10 l 807 66 l 744 128 l 743 146 q 776 194 794 250 q 812 307 812 365 q 812 444 782 513 q 752 582 701 634 z m 634 240 l 518 356 l 442 280 l 558 164 l 554 142 q 528 128 496 119 q 466 111 432 111 q 326 111 252 186 q 178 260 178 365 q 178 470 252 545 q 326 620 432 620 q 537 620 612 545 q 686 470 686 365 q 686 331 678 302 q 670 271 654 242 z"},"w":{"x_min":0,"x_max":1112,"ha":1112,"o":"m 1057 746 l 922 746 l 788 260 l 762 260 l 627 746 l 485 746 l 350 260 l 324 260 l 190 746 l 56 746 l 266 -15 l 408 -15 l 543 470 l 569 470 l 704 -15 l 846 -15 z m 208 766 l 466 766 l 475 772 l 637 772 l 646 766 l 904 766 l 912 772 l 1074 772 l 1087 755 l 1074 709 l 1074 -28 l 1068 -35 l 864 -35 l 856 -42 l 694 -42 l 685 -35 l 427 -35 l 418 -42 l 256 -42 l 248 -35 l 38 -35 l 31 -28 l 31 733 l 25 755 l 38 772 l 200 772 z"},"E":{"x_min":0,"x_max":566,"ha":566,"o":"m 52 746 l 52 -15 l 514 -15 l 514 112 l 186 112 l 173 125 l 173 288 l 186 302 l 396 302 l 396 428 l 186 428 l 173 442 l 173 605 l 186 618 l 514 618 l 514 746 z m 534 598 l 534 132 l 540 125 l 540 -28 l 527 -42 l 38 -42 l 25 -28 l 25 758 l 38 772 l 527 772 l 540 758 l 540 605 z"},"s":{"x_min":0,"x_max":552,"ha":552,"o":"m 276 772 q 304 772 334 765 l 514 765 l 521 758 l 521 580 q 528 550 528 524 l 521 517 l 521 264 q 528 234 528 207 q 528 179 521 150 l 521 -28 l 514 -36 l 329 -36 q 302 -41 276 -41 q 250 -41 224 -36 l 38 -36 l 32 -28 l 32 150 q 25 176 25 207 l 25 207 l 25 208 l 25 208 l 32 214 l 32 466 q 25 492 25 523 q 25 554 32 580 l 32 758 l 38 765 l 218 765 q 248 772 276 772 z m 435 680 q 369 745 276 745 q 183 745 118 680 q 52 614 52 523 q 52 432 116 368 q 180 303 273 302 l 274 302 q 313 302 340 274 q 368 246 368 208 q 368 168 340 140 q 313 112 274 112 q 234 112 206 140 q 184 163 180 194 l 52 194 q 57 109 118 50 q 182 -14 276 -14 q 370 -14 435 50 q 501 114 501 207 q 501 299 435 364 q 370 428 276 428 q 274 428 274 428 q 276 428 275 428 q 274 428 274 428 q 274 428 274 428 l 274 428 l 274 428 l 274 428 q 234 428 206 456 q 178 484 178 524 q 178 562 206 590 q 234 618 274 618 q 313 618 340 590 q 362 568 368 537 l 500 537 q 495 620 435 680 z"},"l":{"x_min":0,"x_max":566,"ha":566,"o":"m 25 -26 l 25 761 l 38 774 l 186 774 l 193 768 l 527 768 l 534 761 l 534 134 l 540 128 l 540 -26 l 527 -40 l 38 -40 z m 52 748 l 52 -12 l 514 -12 l 514 114 l 186 114 l 173 128 l 173 748 z"},"8":{"x_min":0,"x_max":547,"ha":547,"o":"m 38 768 l 226 768 q 249 772 274 772 q 298 772 321 768 l 509 768 l 516 761 l 516 581 q 522 554 522 524 q 522 492 516 466 l 516 264 q 522 236 522 206 q 522 175 516 148 l 516 -26 l 509 -32 l 342 -32 q 307 -42 274 -42 q 240 -42 206 -32 l 38 -32 l 32 -26 l 32 148 q 25 178 25 206 q 25 234 32 264 l 32 466 q 25 495 25 524 q 25 551 32 582 l 32 761 z m 206 590 q 234 618 274 618 q 313 618 340 590 q 368 563 368 524 q 368 484 340 456 q 312 428 274 428 q 234 428 206 456 q 178 484 178 524 q 178 562 206 590 z m 110 356 q 81 324 66 286 q 52 247 52 206 q 52 114 116 49 q 182 -16 274 -16 q 366 -16 430 49 q 496 114 496 206 q 496 247 480 286 q 466 324 438 356 l 438 374 q 466 406 480 444 q 496 482 496 524 q 496 614 430 680 q 366 746 274 746 q 182 746 116 680 q 52 614 52 524 q 52 482 66 444 q 81 406 110 374 z m 206 273 q 234 301 274 301 q 313 301 340 273 q 368 246 368 206 q 368 166 340 139 q 312 111 274 111 q 234 111 206 139 q 178 167 178 206 q 178 245 206 273 z"},"e":{"x_min":0,"x_max":566,"ha":566,"o":"m 52 746 l 52 -15 l 514 -15 l 514 112 l 186 112 l 173 125 l 173 288 l 186 302 l 396 302 l 396 428 l 186 428 l 173 442 l 173 605 l 186 618 l 514 618 l 514 746 z m 534 598 l 534 132 l 540 125 l 540 -28 l 527 -42 l 38 -42 l 25 -28 l 25 758 l 38 772 l 527 772 l 540 758 l 540 605 z"},"b":{"x_min":0,"x_max":566,"ha":566,"o":"m 350 766 l 527 766 l 534 758 l 534 581 q 540 554 540 524 q 540 492 534 466 l 534 264 q 540 236 540 206 q 540 175 534 148 l 534 -28 l 527 -35 l 352 -35 q 322 -42 292 -42 q 290 -42 288 -42 q 286 -42 284 -42 q 280 -42 276 -42 l 38 -42 l 25 -28 l 25 758 l 38 772 l 292 772 q 322 772 350 766 z m 359 456 q 331 428 292 428 l 186 428 l 173 442 l 173 605 l 186 618 l 292 618 q 332 618 359 590 q 387 563 387 524 q 387 484 359 456 z m 276 -15 q 282 -15 284 -16 q 286 -16 287 -16 q 289 -16 292 -16 q 384 -16 449 49 q 514 114 514 206 q 514 247 499 286 q 484 324 456 356 l 456 374 q 484 406 499 444 q 514 482 514 524 q 514 614 449 680 q 384 746 292 746 l 52 746 l 52 -15 l 276 -15 z m 292 301 q 332 301 359 273 q 387 246 387 206 q 387 166 359 139 q 331 111 292 111 l 292 112 l 186 112 l 173 125 l 173 288 l 186 302 l 292 302 z"},"m":{"x_min":0,"x_max":864,"ha":864,"o":"m 361 -15 l 503 -15 l 654 364 l 680 359 l 680 -15 l 812 -15 l 812 746 l 677 746 l 444 162 l 420 162 l 187 746 l 52 746 l 52 -15 l 184 -15 l 184 359 l 210 364 z m 204 766 l 660 766 l 666 772 l 668 772 l 826 772 l 839 758 l 839 -28 l 826 -42 l 666 -42 l 660 -35 l 522 -35 l 512 -42 l 510 -42 l 354 -42 l 352 -42 l 342 -35 l 204 -35 l 198 -42 l 38 -42 l 25 -28 l 25 758 l 38 772 l 196 772 l 198 772 z"},",":{"x_min":0,"x_max":229,"ha":229,"o":"m 38 766 l 192 766 l 198 758 l 198 196 l 204 187 l 198 170 l 198 -28 l 192 -35 l 124 -35 l 115 -42 l 38 -42 l 25 -28 l 25 192 l 32 198 l 32 758 z m 173 178 l 52 178 l 52 -15 l 106 -15 z"},"n":{"x_min":0,"x_max":776,"ha":776,"o":"m 209 766 l 572 766 l 578 772 l 738 772 l 751 758 l 751 -28 l 738 -42 l 578 -42 l 568 -36 l 567 -35 l 204 -35 l 198 -42 l 38 -42 l 25 -28 l 25 758 l 38 772 l 198 772 l 208 766 z m 724 746 l 592 746 l 592 220 l 568 212 l 191 746 l 52 746 l 52 -15 l 184 -15 l 184 510 l 208 517 l 585 -15 l 724 -15 z"},"h":{"x_min":0,"x_max":705,"ha":705,"o":"m 654 746 l 532 746 l 532 442 l 518 428 l 186 428 l 173 442 l 173 746 l 52 746 l 52 -15 l 173 -15 l 173 288 l 186 302 l 518 302 l 532 288 l 532 -15 l 654 -15 z m 193 766 l 512 766 l 518 772 l 666 772 l 680 758 l 680 -28 l 666 -42 l 518 -42 l 512 -35 l 193 -35 l 186 -42 l 38 -42 l 25 -28 l 25 758 l 38 772 l 186 772 z"},"z":{"x_min":0,"x_max":689,"ha":689,"o":"m 657 744 l 657 138 l 664 130 l 664 -28 l 650 -42 l 201 -42 l 174 -42 l 38 -42 l 27 -22 l 32 -13 l 32 592 l 25 600 l 25 758 l 38 772 l 650 772 l 662 752 z m 628 746 l 52 746 l 52 612 l 397 612 l 408 593 l 61 -15 l 174 -15 l 201 -15 l 637 -15 l 637 118 l 292 118 l 280 138 z"},"B":{"x_min":0,"x_max":566,"ha":566,"o":"m 350 766 l 527 766 l 534 758 l 534 581 q 540 554 540 524 q 540 492 534 466 l 534 264 q 540 236 540 206 q 540 175 534 148 l 534 -28 l 527 -35 l 352 -35 q 322 -42 292 -42 q 290 -42 288 -42 q 286 -42 284 -42 q 280 -42 276 -42 l 38 -42 l 25 -28 l 25 758 l 38 772 l 292 772 q 322 772 350 766 z m 359 456 q 331 428 292 428 l 186 428 l 173 442 l 173 605 l 186 618 l 292 618 q 332 618 359 590 q 387 563 387 524 q 387 484 359 456 z m 276 -15 q 282 -15 284 -16 q 286 -16 287 -16 q 289 -16 292 -16 q 384 -16 449 49 q 514 114 514 206 q 514 247 499 286 q 484 324 456 356 l 456 374 q 484 406 499 444 q 514 482 514 524 q 514 614 449 680 q 384 746 292 746 l 52 746 l 52 -15 l 276 -15 z m 292 301 q 332 301 359 273 q 387 246 387 206 q 387 166 359 139 q 331 111 292 111 l 292 112 l 186 112 l 173 125 l 173 288 l 186 302 l 292 302 z"},"K":{"x_min":0,"x_max":603,"ha":603,"o":"m 193 768 l 393 768 l 394 768 l 404 774 l 567 774 l 578 754 l 574 747 l 574 -12 l 578 -18 l 567 -40 l 404 -40 l 394 -34 l 393 -32 l 193 -32 l 186 -40 l 38 -40 l 25 -26 l 25 761 l 38 774 l 186 774 z m 52 748 l 52 -12 l 173 -12 l 173 288 l 197 296 l 412 -12 l 542 -12 l 283 360 l 283 375 l 542 748 l 412 748 l 197 438 l 173 446 l 173 748 z"},"R":{"x_min":0,"x_max":705,"ha":705,"o":"m 452 232 q 540 252 597 324 q 654 394 654 485 q 654 592 577 669 q 500 746 393 746 l 52 746 l 52 605 l 52 -15 l 173 -15 l 173 212 l 186 225 l 269 225 l 280 220 l 481 -15 l 638 -15 l 444 210 z m 454 766 l 666 766 l 674 758 l 674 547 q 680 514 680 485 q 680 456 674 424 l 674 -16 l 677 -20 l 674 -27 l 674 -28 l 672 -29 l 666 -42 l 475 -42 l 465 -36 l 463 -35 l 193 -35 l 186 -42 l 38 -42 l 25 -28 l 25 605 l 25 758 l 38 772 l 393 772 q 426 772 454 766 z m 393 618 q 448 618 487 580 q 526 540 526 485 q 526 430 487 391 q 448 352 393 352 l 186 352 l 173 365 l 173 605 l 186 618 z"},"T":{"x_min":0,"x_max":705,"ha":705,"o":"m 674 598 l 674 -28 l 666 -35 l 433 -35 l 426 -42 l 278 -42 l 272 -35 l 38 -35 l 32 -28 l 32 598 l 25 605 l 25 758 l 38 772 q 196 772 352 772 q 509 772 666 772 l 680 758 l 680 605 z m 52 746 l 52 618 l 278 618 l 292 605 l 292 -15 l 413 -15 l 413 605 l 426 618 l 654 618 l 654 746 q 502 746 352 746 q 202 746 52 746 z"},"P":{"x_min":0,"x_max":705,"ha":705,"o":"m 393 225 q 501 225 577 301 q 654 378 654 485 q 654 592 577 669 q 500 746 393 746 l 52 746 l 52 605 l 52 -15 l 173 -15 l 173 212 l 186 225 z m 454 766 l 666 766 l 674 758 l 674 547 q 680 514 680 485 q 680 456 674 424 l 674 -28 l 666 -35 l 193 -35 l 186 -42 l 38 -42 l 25 -28 l 25 605 l 25 758 l 38 772 l 393 772 q 426 772 454 766 z m 393 618 q 448 618 487 580 q 526 540 526 485 q 526 430 487 391 q 448 352 393 352 l 186 352 l 173 365 l 173 605 l 186 618 z"},"t":{"x_min":0,"x_max":705,"ha":705,"o":"m 674 598 l 674 -28 l 666 -35 l 433 -35 l 426 -42 l 278 -42 l 272 -35 l 38 -35 l 32 -28 l 32 598 l 25 605 l 25 758 l 38 772 q 196 772 352 772 q 509 772 666 772 l 680 758 l 680 605 z m 52 746 l 52 618 l 278 618 l 292 605 l 292 -15 l 413 -15 l 413 605 l 426 618 l 654 618 l 654 746 q 502 746 352 746 q 202 746 52 746 z"},"M":{"x_min":0,"x_max":864,"ha":864,"o":"m 361 -15 l 503 -15 l 654 364 l 680 359 l 680 -15 l 812 -15 l 812 746 l 677 746 l 444 162 l 420 162 l 187 746 l 52 746 l 52 -15 l 184 -15 l 184 359 l 210 364 z m 204 766 l 660 766 l 666 772 l 668 772 l 826 772 l 839 758 l 839 -28 l 826 -42 l 666 -42 l 660 -35 l 522 -35 l 512 -42 l 510 -42 l 354 -42 l 352 -42 l 342 -35 l 204 -35 l 198 -42 l 38 -42 l 25 -28 l 25 758 l 38 772 l 196 772 l 198 772 z"},"g":{"x_min":0,"x_max":864,"ha":864,"o":"m 38 766 l 358 766 q 392 772 432 772 q 470 772 506 766 l 826 766 l 832 758 l 832 436 l 839 430 l 839 362 l 839 362 q 838 324 832 292 l 832 -28 l 826 -35 l 506 -35 q 466 -42 432 -42 q 397 -42 358 -35 l 38 -35 l 32 -28 l 32 292 q 25 326 25 365 q 25 404 32 439 l 32 758 z m 578 716 q 506 746 432 746 q 353 746 284 716 q 214 686 163 634 q 111 582 81 513 q 52 444 52 365 q 52 286 81 217 q 111 148 163 96 q 214 44 284 15 q 353 -15 432 -15 q 510 -15 579 14 q 648 44 700 95 q 751 146 781 215 q 812 284 812 362 l 812 362 l 812 416 l 400 416 l 400 308 l 662 308 l 676 292 q 651 211 583 161 q 516 111 432 111 q 326 111 252 186 q 178 260 178 365 q 178 470 252 545 q 326 620 432 620 q 482 620 529 600 q 569 584 602 554 l 692 644 q 640 690 578 716 z"},"j":{"x_min":0,"x_max":496,"ha":496,"o":"m 444 746 l 317 746 l 317 206 q 317 167 289 139 q 261 111 222 111 q 200 111 180 121 q 168 127 156 138 l 54 60 q 84 26 124 7 q 171 -16 222 -16 q 314 -16 379 49 q 444 114 444 206 z m 36 766 l 297 766 l 304 772 l 457 772 l 470 758 l 470 206 q 470 178 464 148 l 464 -28 l 457 -35 l 282 -35 q 252 -42 222 -42 q 192 -42 162 -35 l 36 -35 l 29 -28 l 29 50 q 27 52 25 54 l 28 73 l 29 74 l 29 758 z"},"i":{"x_min":0,"x_max":224,"ha":224,"o":"m 173 748 l 52 748 l 52 -12 l 173 -12 z m 38 774 l 186 774 l 200 761 l 200 -26 l 186 -40 l 38 -40 l 25 -26 l 25 761 z"},"y":{"x_min":0,"x_max":686,"ha":686,"o":"m 217 746 l 58 746 l 278 262 l 280 257 l 280 -15 l 406 -15 l 406 257 l 408 262 l 628 746 l 470 746 l 356 496 l 331 496 z m 236 766 l 450 766 l 461 772 l 650 772 l 662 753 l 656 742 l 656 -28 l 650 -35 l 426 -35 l 420 -42 l 266 -42 l 260 -35 l 37 -35 l 30 -28 l 30 742 l 25 753 l 37 772 l 226 772 z"},".":{"x_min":0,"x_max":231,"ha":231,"o":"m 116 -15 q 141 -15 160 4 q 180 22 180 48 q 180 74 160 94 q 142 112 116 112 q 89 112 70 94 q 52 74 52 48 q 52 22 70 4 q 90 -15 116 -15 z m 38 766 l 192 766 l 198 758 l 198 85 q 206 66 206 48 q 206 31 198 12 l 198 -28 l 192 -35 l 150 -35 q 132 -42 116 -42 q 98 -42 82 -35 l 38 -35 l 32 -28 l 32 14 q 25 32 25 48 q 25 65 32 82 l 32 758 z"},"p":{"x_min":0,"x_max":705,"ha":705,"o":"m 393 225 q 501 225 577 301 q 654 378 654 485 q 654 592 577 669 q 500 746 393 746 l 52 746 l 52 605 l 52 -15 l 173 -15 l 173 212 l 186 225 z m 454 766 l 666 766 l 674 758 l 674 547 q 680 514 680 485 q 680 456 674 424 l 674 -28 l 666 -35 l 193 -35 l 186 -42 l 38 -42 l 25 -28 l 25 605 l 25 758 l 38 772 l 393 772 q 426 772 454 766 z m 393 618 q 448 618 487 580 q 526 540 526 485 q 526 430 487 391 q 448 352 393 352 l 186 352 l 173 365 l 173 605 l 186 618 z"},"X":{"x_min":0,"x_max":686,"ha":686,"o":"m 236 766 l 450 766 l 460 772 l 649 772 l 660 752 l 656 743 l 656 -12 l 660 -22 l 649 -42 l 460 -42 l 450 -35 l 236 -35 l 225 -42 l 36 -42 l 25 -22 l 30 -12 l 30 743 l 25 752 l 36 772 l 225 772 z m 626 746 l 468 746 l 354 534 l 331 534 l 217 746 l 59 746 l 260 372 l 260 359 l 59 -15 l 217 -15 l 331 196 l 354 196 l 468 -15 l 626 -15 l 425 359 l 425 372 z"},"Y":{"x_min":0,"x_max":686,"ha":686,"o":"m 217 746 l 58 746 l 278 262 l 280 257 l 280 -15 l 406 -15 l 406 257 l 408 262 l 628 746 l 470 746 l 356 496 l 331 496 z m 236 766 l 450 766 l 461 772 l 650 772 l 662 753 l 656 742 l 656 -28 l 650 -35 l 426 -35 l 420 -42 l 266 -42 l 260 -35 l 37 -35 l 30 -28 l 30 742 l 25 753 l 37 772 l 226 772 z"},"c":{"x_min":0,"x_max":748,"ha":748,"o":"m 38 766 l 358 766 q 392 772 432 772 q 470 772 506 766 l 710 766 l 717 758 l 717 656 q 718 654 720 652 q 722 651 723 650 l 723 630 l 717 624 l 717 99 l 720 96 l 720 78 q 719 76 717 74 l 717 -28 l 710 -35 l 506 -35 q 466 -42 432 -42 q 397 -42 358 -35 l 38 -35 l 32 -28 l 32 292 q 25 326 25 365 q 25 404 32 439 l 32 758 z m 580 716 q 508 746 432 746 q 353 746 284 716 q 214 686 163 634 q 111 582 81 513 q 52 444 52 365 q 52 286 81 217 q 111 148 163 96 q 214 44 284 15 q 353 -15 432 -15 q 582 -15 692 87 l 602 176 q 570 148 529 130 q 483 111 432 111 q 326 111 252 186 q 178 260 178 365 q 178 470 252 545 q 326 620 432 620 q 482 620 530 600 q 570 582 604 552 l 694 640 q 645 688 580 716 z"},"!":{"x_min":0,"x_max":231,"ha":231,"o":"m 116 -15 q 141 -15 160 4 q 180 22 180 48 q 180 74 160 94 q 142 112 116 112 q 89 112 70 94 q 52 74 52 48 q 52 22 70 4 q 90 -15 116 -15 z m 38 772 l 192 772 l 205 758 l 205 262 l 198 255 l 198 85 q 206 66 206 48 q 206 31 198 12 l 198 -28 l 192 -35 l 150 -35 q 132 -42 116 -42 q 98 -42 82 -35 l 38 -35 l 32 -28 l 32 14 q 25 32 25 48 q 25 65 32 82 l 32 255 l 25 262 l 25 758 z m 178 746 l 52 746 l 52 275 l 178 275 z"},"6":{"x_min":0,"x_max":547,"ha":547,"o":"m 274 428 q 252 428 234 424 q 215 422 196 414 l 178 427 l 178 524 q 178 562 206 590 q 234 618 274 618 q 313 618 340 590 q 362 568 368 537 l 495 537 q 490 620 430 680 q 366 746 274 746 q 182 746 116 680 q 52 614 52 524 l 52 206 q 52 114 116 49 q 182 -16 274 -16 q 366 -16 430 49 q 496 114 496 206 q 496 298 430 363 q 366 428 274 428 z m 38 766 l 216 766 q 242 772 274 772 q 304 772 331 766 l 509 766 l 516 758 l 516 581 q 522 554 522 524 l 516 517 l 516 264 q 522 236 522 206 q 522 175 516 148 l 516 -28 l 509 -35 l 334 -35 q 303 -42 274 -42 q 244 -42 214 -35 l 38 -35 l 32 -28 l 32 148 q 25 178 25 206 l 25 524 q 25 550 32 581 l 32 758 z m 206 273 q 234 301 274 301 q 313 301 340 273 q 368 246 368 206 q 368 166 340 139 q 312 111 274 111 q 234 111 206 139 q 178 167 178 206 q 178 245 206 273 z"},"r":{"x_min":0,"x_max":705,"ha":705,"o":"m 452 232 q 540 252 597 324 q 654 394 654 485 q 654 592 577 669 q 500 746 393 746 l 52 746 l 52 605 l 52 -15 l 173 -15 l 173 212 l 186 225 l 269 225 l 280 220 l 481 -15 l 638 -15 l 444 210 z m 454 766 l 666 766 l 674 758 l 674 547 q 680 514 680 485 q 680 456 674 424 l 674 -16 l 677 -20 l 674 -27 l 674 -28 l 672 -29 l 666 -42 l 475 -42 l 465 -36 l 463 -35 l 193 -35 l 186 -42 l 38 -42 l 25 -28 l 25 605 l 25 758 l 38 772 l 393 772 q 426 772 454 766 z m 393 618 q 448 618 487 580 q 526 540 526 485 q 526 430 487 391 q 448 352 393 352 l 186 352 l 173 365 l 173 605 l 186 618 z"},"2":{"x_min":0,"x_max":547,"ha":547,"o":"m 274 618 q 313 618 340 590 q 368 563 368 524 q 368 484 340 456 q 313 429 274 428 l 274 428 q 182 428 116 363 q 52 298 52 206 l 52 -15 l 496 -15 l 496 112 l 192 112 l 178 125 l 178 206 q 178 245 206 273 q 234 301 273 301 l 274 302 q 366 302 430 366 q 496 432 496 524 q 496 614 430 680 q 366 746 274 746 q 182 746 116 680 q 57 620 52 537 l 180 537 q 184 568 206 590 q 234 618 274 618 z m 32 516 l 25 524 q 25 554 32 584 l 32 758 l 39 766 l 216 766 q 242 772 274 772 q 304 772 331 766 l 509 766 l 516 758 l 516 581 q 522 554 522 524 q 522 492 516 466 l 516 132 l 522 125 l 522 -28 l 509 -42 l 39 -42 l 26 -28 l 25 206 q 25 238 32 266 z"},"9":{"x_min":0,"x_max":547,"ha":547,"o":"m 368 303 l 368 206 q 368 166 340 139 q 312 111 274 111 q 234 111 206 139 q 184 162 180 193 l 52 193 q 57 109 116 49 q 182 -16 274 -16 q 366 -16 430 49 q 496 114 496 206 l 496 524 q 496 614 430 680 q 366 746 274 746 q 182 746 116 680 q 52 614 52 524 q 52 432 116 366 q 182 302 274 302 q 290 302 313 305 q 332 308 350 316 z m 509 -36 l 331 -36 q 300 -42 274 -42 q 246 -42 216 -36 l 38 -36 l 32 -28 l 32 148 q 25 178 25 206 l 32 213 l 32 466 q 25 496 25 524 q 25 550 32 581 l 32 758 l 38 765 l 214 765 q 244 772 274 772 q 303 772 334 765 l 509 765 l 516 758 l 516 581 q 522 554 522 524 l 522 206 q 522 175 516 148 l 516 -28 z m 340 456 q 312 428 274 428 q 234 428 206 456 q 178 484 178 524 q 178 562 206 590 q 234 618 274 618 q 313 618 340 590 q 368 563 368 524 q 368 484 340 456 z"}," ":{"x_min":0,"x_max":300,"ha":300,"o":""},"I":{"x_min":0,"x_max":224,"ha":224,"o":"m 173 748 l 52 748 l 52 -12 l 173 -12 z m 38 774 l 186 774 l 200 761 l 200 -26 l 186 -40 l 38 -40 l 25 -26 l 25 761 z"},"H":{"x_min":0,"x_max":705,"ha":705,"o":"m 654 746 l 532 746 l 532 442 l 518 428 l 186 428 l 173 442 l 173 746 l 52 746 l 52 -15 l 173 -15 l 173 288 l 186 302 l 518 302 l 532 288 l 532 -15 l 654 -15 z m 193 766 l 512 766 l 518 772 l 666 772 l 680 758 l 680 -28 l 666 -42 l 518 -42 l 512 -35 l 193 -35 l 186 -42 l 38 -42 l 25 -28 l 25 758 l 38 772 l 186 772 z"},"4":{"x_min":0,"x_max":546,"ha":546,"o":"m 179 259 l 252 422 l 278 417 l 278 254 l 264 240 l 192 240 z m 26 259 l 32 271 l 32 761 l 38 768 l 254 768 l 264 774 l 412 774 l 419 768 l 508 768 l 515 761 l 515 260 l 522 254 l 522 100 l 515 93 l 515 -26 l 508 -32 l 419 -32 l 412 -40 l 264 -40 l 258 -32 l 38 -32 l 32 -26 l 32 93 l 25 100 l 25 254 z m 273 748 l 52 251 l 52 113 l 264 113 l 278 100 l 278 -12 l 399 -12 l 399 100 l 412 113 l 495 113 l 495 240 l 412 240 l 399 254 l 399 748 z"},"D":{"x_min":0,"x_max":705,"ha":705,"o":"m 347 766 l 666 766 l 674 758 l 674 439 q 680 400 680 365 q 680 330 674 292 l 674 -28 l 666 -35 l 347 -35 q 308 -42 273 -42 l 38 -42 l 25 -28 l 25 758 l 38 772 l 273 772 q 312 772 347 766 z m 542 634 q 490 686 421 716 q 352 746 273 746 l 52 746 l 52 -15 l 273 -15 q 352 -15 421 15 q 490 44 542 96 q 593 148 623 217 q 654 286 654 365 q 654 444 623 513 q 593 582 542 634 z m 273 111 l 198 111 l 184 124 l 184 606 l 198 620 l 273 620 q 378 620 452 545 q 527 471 527 365 q 527 259 452 186 q 378 111 273 111 z"},"0":{"x_min":0,"x_max":547,"ha":547,"o":"m 38 768 l 226 768 q 249 772 274 772 q 298 772 321 768 l 509 768 l 516 761 l 516 581 q 522 554 522 524 l 522 206 q 522 175 516 148 l 516 -26 l 509 -32 l 342 -32 q 307 -42 274 -42 q 240 -42 206 -32 l 38 -32 l 32 -26 l 32 148 q 25 178 25 206 l 25 524 q 25 551 32 582 l 32 761 z m 206 590 q 234 618 274 618 q 313 618 340 590 q 368 563 368 524 l 368 206 q 368 166 340 139 q 312 111 274 111 q 234 111 206 139 q 178 167 178 206 l 178 524 q 178 562 206 590 z m 430 49 q 496 114 496 206 l 496 524 q 496 614 430 680 q 366 746 274 746 q 182 746 116 680 q 52 614 52 524 l 52 206 q 52 114 116 49 q 182 -16 274 -16 q 366 -16 430 49 z"},"F":{"x_min":0,"x_max":566,"ha":566,"o":"m 52 748 l 52 -12 l 173 -12 l 173 290 l 186 304 l 374 304 l 374 431 l 186 431 l 173 444 l 173 607 l 186 620 l 514 620 l 514 748 z m 534 600 l 534 -26 l 527 -32 l 193 -32 l 186 -40 l 38 -40 l 25 -26 l 25 761 l 38 774 l 527 774 l 540 761 l 540 607 z"},"k":{"x_min":0,"x_max":603,"ha":603,"o":"m 193 768 l 393 768 l 394 768 l 404 774 l 567 774 l 578 754 l 574 747 l 574 -12 l 578 -18 l 567 -40 l 404 -40 l 394 -34 l 393 -32 l 193 -32 l 186 -40 l 38 -40 l 25 -26 l 25 761 l 38 774 l 186 774 z m 52 748 l 52 -12 l 173 -12 l 173 288 l 197 296 l 412 -12 l 542 -12 l 283 360 l 283 375 l 542 748 l 412 748 l 197 438 l 173 446 l 173 748 z"},"u":{"x_min":0,"x_max":705,"ha":705,"o":"m 193 766 l 512 766 l 518 772 l 666 772 l 680 758 l 680 278 l 680 278 l 680 278 q 679 250 674 220 l 674 -28 l 666 -35 l 420 -35 q 388 -42 352 -42 q 316 -42 285 -35 l 38 -35 l 32 -28 l 32 220 q 26 250 25 278 l 25 278 l 25 278 l 25 758 l 38 772 l 186 772 z m 562 70 q 650 156 653 278 l 654 278 l 654 746 l 532 746 l 532 278 l 532 277 q 528 204 476 156 q 424 106 352 106 q 280 106 228 156 q 176 204 173 277 l 173 278 l 173 746 l 52 746 l 52 278 l 52 278 q 54 156 142 70 q 229 -15 352 -15 q 476 -15 562 70 z"},"U":{"x_min":0,"x_max":705,"ha":705,"o":"m 193 766 l 512 766 l 518 772 l 666 772 l 680 758 l 680 278 l 680 278 l 680 278 q 679 250 674 220 l 674 -28 l 666 -35 l 420 -35 q 388 -42 352 -42 q 316 -42 285 -35 l 38 -35 l 32 -28 l 32 220 q 26 250 25 278 l 25 278 l 25 278 l 25 758 l 38 772 l 186 772 z m 562 70 q 650 156 653 278 l 654 278 l 654 746 l 532 746 l 532 278 l 532 277 q 528 204 476 156 q 424 106 352 106 q 280 106 228 156 q 176 204 173 277 l 173 278 l 173 746 l 52 746 l 52 278 l 52 278 q 54 156 142 70 q 229 -15 352 -15 q 476 -15 562 70 z"},"o":{"x_min":0,"x_max":864,"ha":864,"o":"m 38 766 l 358 766 q 392 772 432 772 q 470 772 506 766 l 826 766 l 832 758 l 832 439 q 839 400 839 365 q 839 330 832 292 l 832 -28 l 826 -35 l 506 -35 q 466 -42 432 -42 q 397 -42 358 -35 l 38 -35 l 32 -28 l 32 292 q 25 326 25 365 q 25 404 32 439 l 32 758 z m 701 634 q 649 686 580 716 q 510 746 432 746 q 353 746 284 716 q 214 686 163 634 q 111 582 81 513 q 52 444 52 365 q 52 286 81 217 q 111 148 163 96 q 214 44 284 15 q 353 -15 432 -15 q 510 -15 580 15 q 649 44 701 96 q 752 148 782 217 q 812 286 812 365 q 812 444 782 513 q 752 582 701 634 z m 432 620 q 537 620 612 545 q 686 470 686 365 q 686 260 612 186 q 537 111 432 111 q 326 111 252 186 q 178 260 178 365 q 178 470 252 545 q 326 620 432 620 z"},"N":{"x_min":0,"x_max":776,"ha":776,"o":"m 209 766 l 572 766 l 578 772 l 738 772 l 751 758 l 751 -28 l 738 -42 l 578 -42 l 568 -36 l 567 -35 l 204 -35 l 198 -42 l 38 -42 l 25 -28 l 25 758 l 38 772 l 198 772 l 208 766 z m 724 746 l 592 746 l 592 220 l 568 212 l 191 746 l 52 746 l 52 -15 l 184 -15 l 184 510 l 208 517 l 585 -15 l 724 -15 z"},"G":{"x_min":0,"x_max":864,"ha":864,"o":"m 38 766 l 358 766 q 392 772 432 772 q 470 772 506 766 l 826 766 l 832 758 l 832 436 l 839 430 l 839 362 l 839 362 q 838 324 832 292 l 832 -28 l 826 -35 l 506 -35 q 466 -42 432 -42 q 397 -42 358 -35 l 38 -35 l 32 -28 l 32 292 q 25 326 25 365 q 25 404 32 439 l 32 758 z m 578 716 q 506 746 432 746 q 353 746 284 716 q 214 686 163 634 q 111 582 81 513 q 52 444 52 365 q 52 286 81 217 q 111 148 163 96 q 214 44 284 15 q 353 -15 432 -15 q 510 -15 579 14 q 648 44 700 95 q 751 146 781 215 q 812 284 812 362 l 812 362 l 812 416 l 400 416 l 400 308 l 662 308 l 676 292 q 651 211 583 161 q 516 111 432 111 q 326 111 252 186 q 178 260 178 365 q 178 470 252 545 q 326 620 432 620 q 482 620 529 600 q 569 584 602 554 l 692 644 q 640 690 578 716 z"},"q":{"x_min":0,"x_max":864,"ha":864,"o":"m 38 766 l 358 766 q 392 772 432 772 q 470 772 506 766 l 826 766 l 832 758 l 832 439 q 839 400 839 365 q 839 330 832 292 l 832 78 l 835 76 l 835 56 l 832 54 l 832 -28 l 826 -35 l 743 -35 l 740 -38 l 722 -38 l 718 -35 l 506 -35 q 466 -42 432 -42 q 397 -42 358 -35 l 38 -35 l 32 -28 l 32 292 q 25 326 25 365 q 25 404 32 439 l 32 758 z m 701 634 q 649 686 580 716 q 510 746 432 746 q 353 746 284 716 q 214 686 163 634 q 111 582 81 513 q 52 444 52 365 q 52 286 81 217 q 111 148 163 96 q 214 44 284 15 q 353 -15 432 -15 q 490 -15 547 2 q 604 20 651 54 l 668 53 l 731 -10 l 807 66 l 744 128 l 743 146 q 776 194 794 250 q 812 307 812 365 q 812 444 782 513 q 752 582 701 634 z m 634 240 l 518 356 l 442 280 l 558 164 l 554 142 q 528 128 496 119 q 466 111 432 111 q 326 111 252 186 q 178 260 178 365 q 178 470 252 545 q 326 620 432 620 q 537 620 612 545 q 686 470 686 365 q 686 331 678 302 q 670 271 654 242 z"},"d":{"x_min":0,"x_max":705,"ha":705,"o":"m 347 766 l 666 766 l 674 758 l 674 439 q 680 400 680 365 q 680 330 674 292 l 674 -28 l 666 -35 l 347 -35 q 308 -42 273 -42 l 38 -42 l 25 -28 l 25 758 l 38 772 l 273 772 q 312 772 347 766 z m 542 634 q 490 686 421 716 q 352 746 273 746 l 52 746 l 52 -15 l 273 -15 q 352 -15 421 15 q 490 44 542 96 q 593 148 623 217 q 654 286 654 365 q 654 444 623 513 q 593 582 542 634 z m 273 111 l 198 111 l 184 124 l 184 606 l 198 620 l 273 620 q 378 620 452 545 q 527 471 527 365 q 527 259 452 186 q 378 111 273 111 z"},"1":{"x_min":0,"x_max":346,"ha":346,"o":"m 32 476 l 25 479 l 25 661 l 30 672 l 32 673 l 32 761 l 38 768 l 146 768 l 150 771 l 159 774 l 307 774 l 320 761 l 320 -26 l 307 -40 l 159 -40 l 152 -32 l 38 -32 l 32 -26 z m 52 508 l 150 589 l 172 579 l 172 -12 l 294 -12 l 294 748 l 164 748 l 52 655 z"},"5":{"x_min":0,"x_max":547,"ha":547,"o":"m 515 343 q 522 313 522 283 l 522 206 q 522 176 515 146 l 515 -28 l 508 -35 l 334 -35 q 303 -42 274 -42 q 244 -42 214 -35 l 38 -35 l 32 -28 l 32 148 q 25 175 25 206 l 32 213 l 32 358 l 25 365 l 25 758 l 38 772 l 508 772 l 522 758 l 522 605 l 515 598 z m 430 440 q 366 505 274 505 l 192 505 l 178 518 l 178 605 l 192 618 l 495 618 l 495 746 l 52 746 l 52 378 l 274 378 l 274 378 q 313 378 340 350 q 368 322 368 283 l 368 206 q 368 166 340 139 q 312 111 274 111 q 234 111 206 139 q 184 162 180 193 l 52 193 q 57 109 116 49 q 182 -16 274 -16 q 366 -16 430 49 q 496 114 496 206 l 496 283 q 496 375 430 440 z"}}}
